<svg xmlns="http://www.w3.org/2000/svg" viewBox="0 0 32 32" width="32" height="32">
  <!-- Palm tree trunk -->
  <rect x="14" y="18" width="4" height="12" fill="#8B4513" rx="1"/>
  
  <!-- Palm fronds -->
  <path d="M16 18 Q12 12 8 14 Q10 16 16 16" fill="#228B22"/>
  <path d="M16 18 Q20 12 24 14 Q22 16 16 16" fill="#228B22"/>
  <path d="M16 18 Q14 8 12 6 Q15 10 16 16" fill="#32CD32"/>
  <path d="M16 18 Q18 8 20 6 Q17 10 16 16" fill="#32CD32"/>
  <path d="M16 18 Q16 6 16 4 Q16 10 16 16" fill="#228B22"/>
  
  <!-- Coconuts -->
  <circle cx="14" cy="16" r="1.5" fill="#8B4513"/>
  <circle cx="18" cy="15" r="1.5" fill="#8B4513"/>
</svg>